<svg width="80" height="96" viewBox="0 0 80 96" fill="none" xmlns="http://www.w3.org/2000/svg">
<path d="M71.9891 47.6981V39.6971H63.993V47.6981H39.995V35.6967C39.995 35.1699 39.9752 34.6381 39.9304 34.1213C39.2496 25.3649 32.9283 18.1939 24.5944 16.2309C23.1184 15.888 21.5778 15.7041 19.9925 15.7041C8.95018 15.6991 0 24.6543 0 35.6967C0 38.8623 0.735495 41.8539 2.04746 44.5176C5.30749 51.142 12.1158 55.6991 19.9975 55.6991H31.999V75.6221C31.999 86.6645 40.9542 95.6196 52.0015 95.6196C58.5414 95.6196 64.3509 92.4789 67.9985 87.6236C70.5081 84.2841 71.999 80.1245 71.999 75.6221V55.6991H80V47.7031H71.999L71.9891 47.6981ZM11.8574 44.5176C9.48192 42.326 7.99602 39.1853 7.99602 35.6967C7.99602 29.0673 13.3681 23.6952 19.9975 23.6952C21.6275 23.6952 23.183 24.0231 24.5993 24.6096C28.9427 26.4135 31.999 30.6973 31.999 35.6967C31.999 39.1853 30.5131 42.326 28.1377 44.5176C27.109 45.4668 25.9113 46.2421 24.5993 46.7887C23.183 47.3751 21.6325 47.7031 19.9975 47.7031C16.8518 47.7031 13.9943 46.5005 11.8574 44.5176ZM51.9965 87.6186C45.3671 87.6186 39.995 82.2465 39.995 75.6171V55.6942H50.2274C50.8088 55.6445 51.4002 55.6147 51.9916 55.6147C52.5829 55.6147 53.1743 55.6445 53.7557 55.6942H63.9881V75.6171C63.9881 82.2465 58.616 87.6186 51.9866 87.6186H51.9965Z" fill="#5C2702"/>
<path d="M55.902 44.5173H48.0898C48.0898 33.3557 52.2295 27.9091 56.235 22.6413C60.2752 17.3338 64.0869 12.3146 64.0869 0H71.899C71.899 14.9484 66.8798 21.548 62.4519 27.3723C58.7893 32.1879 55.897 35.9896 55.897 44.5223L55.902 44.5173Z" fill="#5C2702"/>
</svg>
