<svg width="453" height="76" viewBox="0 0 453 76" fill="none" xmlns="http://www.w3.org/2000/svg">
<path d="M0 13.25H12.9807C22.3659 13.25 26.662 18.0773 26.662 27.9861V32.8981C26.662 42.8069 22.3659 47.6342 12.9807 47.6342H5.43557V74.6504H0V13.25ZM12.9807 42.6375C18.6857 42.6375 21.2265 40.0968 21.2265 33.1599V27.6319C21.2265 20.7874 18.6857 18.1543 12.9807 18.1543H5.43557V42.6298H12.9807V42.6375Z" fill="white"/>
<path d="M51.0526 61.0617H35.3542L32.8134 74.6583H27.6396L39.658 13.2502H47.026L59.2214 74.6583H53.6934L51.0603 61.0617H51.0526ZM50.1749 56.2343L43.1534 19.9176L36.3088 56.2343H50.1673H50.1749ZM46.3639 10.8788H41.9754L48.1193 0H54.3479L46.3639 10.8788Z" fill="white"/>
<path d="M64.9111 60.5383V27.3782C64.9111 17.6389 69.6461 12.3804 78.5078 12.3804C87.3694 12.3804 92.1891 17.6466 92.1891 27.3782V32.2056H87.0153V27.0318C87.0153 20.449 84.0357 17.2924 78.5925 17.2924C73.1492 17.2924 70.3467 20.449 70.3467 27.0318V60.8925C70.3467 67.5599 73.3263 70.5395 78.5925 70.5395C83.8587 70.5395 87.0153 67.5599 87.0153 60.8925V46.3335H79.2931V41.3367H92.1891V60.546C92.1891 70.2854 87.4541 75.5439 78.5078 75.5439C69.5614 75.5439 64.9111 70.2777 64.9111 60.546V60.5383Z" fill="white"/>
<path d="M100.704 13.25H106.14V74.6581H100.704V13.25Z" fill="white"/>
<path d="M115.617 13.25H122.808L138.776 60.7073V13.25H143.865V74.6581H138.075L120.622 22.2888V74.6581H115.625V13.25H115.617Z" fill="white"/>
<path d="M173.954 61.0615H158.256L155.715 74.6581H150.541L162.559 13.25H169.927L182.123 74.6581H176.595L173.962 61.0615H173.954ZM173.076 56.2341L166.055 19.9174L159.21 56.2341H173.069H173.076Z" fill="white"/>
<path d="M186.673 60.9772V57.5588H191.847V61.3313C191.847 67.4752 195.003 70.5395 200.092 70.5395C205.182 70.5395 208.338 67.4675 208.338 61.2389C208.338 55.3645 205.882 51.4996 198.252 45.4481C189.568 38.5189 186.673 33.6915 186.673 26.6776C186.673 17.7313 191.585 12.3804 200.185 12.3804C208.785 12.3804 213.427 17.7313 213.427 26.9394V29.3954H208.253V26.5852C208.253 20.4413 205.274 17.2847 200.185 17.2847C195.096 17.2847 192.116 20.5337 192.116 26.3235C192.116 31.759 194.749 35.5316 202.379 41.6755C211.064 48.6971 213.781 53.432 213.781 60.8848C213.781 70.1853 208.869 75.5362 200.1 75.5362C191.331 75.5362 186.681 70.1853 186.681 60.9772H186.673Z" fill="white"/>
<path d="M293.566 60.5383V27.3782C293.566 17.6389 298.301 12.3804 307.163 12.3804C316.025 12.3804 320.844 17.6466 320.844 27.3782V32.2056H315.671V27.0318C315.671 20.449 312.691 17.2924 307.248 17.2924C301.804 17.2924 299.002 20.449 299.002 27.0318V60.8925C299.002 67.5599 301.982 70.5395 307.248 70.5395C312.514 70.5395 315.671 67.5599 315.671 60.8925V46.3335H307.948V41.3367H320.844V60.546C320.844 70.2854 316.109 75.5439 307.163 75.5439C298.217 75.5439 293.566 70.2777 293.566 60.546V60.5383Z" fill="white"/>
<path d="M326.496 14.1274H339.569C349.131 14.1274 353.166 18.4235 353.166 28.0782V31.8508C353.166 38.6953 350.794 42.8143 345.713 44.2233V44.4004C351.064 45.6322 353.166 49.7512 353.166 57.0346V68.1752C353.166 70.8083 353.343 73.4414 354.044 75.5433H348.516C348.077 73.7879 347.723 71.8554 347.723 68.0905V56.7728C347.723 49.6665 345.089 47.2105 338.599 47.2105H331.932V75.5433H326.496V14.1274ZM338.514 42.1137C344.743 42.1137 347.723 39.4806 347.723 32.8132V28.5171C347.723 21.8497 345.351 19.0395 339.392 19.0395H331.939V42.1137H338.522H338.514Z" fill="white"/>
<path d="M380.959 61.9395H365.26L362.72 75.5361H357.546L369.564 14.128H376.932L389.128 75.5361H383.6L380.967 61.9395H380.959ZM366.223 14.0048L363.243 12.4265C365.083 8.13039 367.193 6.2826 369.734 6.2826C371.751 6.2826 373.152 7.24499 374.384 8.12269C375.346 8.82331 376.224 9.43924 377.279 9.43924C378.511 9.43924 379.558 8.64623 380.79 5.84375L383.769 7.42207C381.929 11.7182 379.819 13.566 377.279 13.566C375.177 13.566 373.86 12.6883 372.544 11.7259C371.666 11.0253 370.788 10.4093 369.734 10.4093C368.417 10.4093 367.278 11.3717 366.223 14.0048ZM380.081 57.1121L373.06 20.7954L366.215 57.1121H380.074H380.081Z" fill="white"/>
<path d="M392.616 60.5383V27.3782C392.616 17.6389 397.528 12.3804 406.39 12.3804C415.252 12.3804 420.164 17.6466 420.164 27.3782V60.5383C420.164 70.2777 415.252 75.5362 406.39 75.5362C397.528 75.5362 392.616 70.27 392.616 60.5383ZM414.72 60.8848V27.0241C414.72 20.4413 411.741 17.2847 406.39 17.2847C401.039 17.2847 398.059 20.4413 398.059 27.0241V60.8848C398.059 67.4675 401.039 70.5318 406.39 70.5318C411.741 70.5318 414.72 67.4598 414.72 60.8848Z" fill="white"/>
<path d="M425.892 60.9772V57.5588H431.065V61.3313C431.065 67.4752 434.222 70.5395 439.311 70.5395C444.4 70.5395 447.557 67.4675 447.557 61.2389C447.557 55.3645 445.101 51.4996 437.471 45.4481C428.786 38.5189 425.892 33.6915 425.892 26.6776C425.892 17.7313 430.804 12.3804 439.404 12.3804C448.003 12.3804 452.646 17.7313 452.646 26.9394V29.3954H447.472V26.5852C447.472 20.4413 444.493 17.2847 439.404 17.2847C434.314 17.2847 431.335 20.5337 431.335 26.3235C431.335 31.759 433.968 35.5316 441.598 41.6755C450.282 48.6971 453 53.432 453 60.8848C453 70.1853 448.088 75.5362 439.319 75.5362C430.55 75.5362 425.899 70.1853 425.899 60.9772H425.892Z" fill="white"/>
<path d="M273.88 43.885V38.8344H268.83V43.885H253.67V36.3014C253.67 35.9703 253.655 35.6315 253.632 35.3082C253.2 29.7802 249.205 25.2454 243.946 24.0059C243.015 23.7903 242.044 23.6748 241.044 23.6748C234.068 23.6748 228.417 29.326 228.417 36.3014C228.417 38.3031 228.879 40.1894 229.71 41.8678C231.766 46.0484 236.07 48.9279 241.051 48.9279H248.627V61.5082C248.627 68.4836 254.286 74.1348 261.261 74.1348C265.388 74.1348 269.061 72.1484 271.363 69.0842C272.949 66.9746 273.888 64.3492 273.888 61.5082V48.9279H278.939V43.8773H273.888L273.88 43.885ZM235.901 41.8755C234.399 40.4897 233.46 38.511 233.46 36.309C233.46 32.1207 236.855 28.7331 241.036 28.7331C242.068 28.7331 243.045 28.941 243.938 29.3106C246.679 30.45 248.612 33.1601 248.612 36.309C248.612 38.511 247.672 40.4974 246.171 41.8755C245.524 42.476 244.77 42.9611 243.938 43.3075C243.045 43.6771 242.06 43.885 241.036 43.885C239.049 43.885 237.248 43.1228 235.893 41.8755H235.901ZM261.254 69.0996C257.065 69.0996 253.678 65.7043 253.678 61.5236V48.9433H260.145C260.515 48.9125 260.884 48.8971 261.261 48.8971C261.639 48.8971 262.008 48.9125 262.378 48.9433H268.845V61.5236C268.845 65.712 265.45 69.0996 261.269 69.0996H261.254Z" fill="white"/>
<path d="M263.717 41.8755H258.782C258.782 34.8231 261.4 31.3816 263.925 28.0556C266.474 24.6987 268.883 21.5344 268.883 13.7583H273.819C273.819 23.1974 270.647 27.3703 267.852 31.0428C265.542 34.084 263.71 36.4861 263.71 41.8755H263.717Z" fill="white"/>
</svg>
