<svg width="110" height="75" viewBox="0 0 110 75" fill="none" xmlns="http://www.w3.org/2000/svg">
<path d="M0.532227 6.98828H7.17807C11.9825 6.98828 14.1839 9.45958 14.1839 14.534V17.0502C14.1839 22.1246 11.9825 24.5959 7.17807 24.5959H3.31526V38.4275H0.532227V6.98828ZM7.17807 22.0314C10.0961 22.0314 11.4008 20.7299 11.4008 17.182V14.354C11.4008 10.8511 10.0993 9.50458 7.17807 9.50458H3.31526V22.0346H7.17807V22.0314Z" fill="#9D5623"/>
<path d="M26.6686 31.4639H18.6312L17.3297 38.4246H14.6816L20.8294 6.98862H24.6022L30.8431 38.4246H28.0151L26.6686 31.4639ZM26.2187 28.9925L22.6258 10.4015L19.1229 28.9925H26.2187ZM24.268 5.77386H22.0216L25.1678 0.20459H28.3558L24.268 5.77386Z" fill="#9D5623"/>
<path d="M33.7646 31.1945V14.2199C33.7646 9.23553 36.191 6.54248 40.7254 6.54248C45.2599 6.54248 47.7312 9.23553 47.7312 14.2199V16.6912H45.0832V14.0432C45.0832 10.6752 43.5567 9.05878 40.7736 9.05878C37.9906 9.05878 36.5509 10.6752 36.5509 14.0432V31.3776C36.5509 34.7905 38.0774 36.317 40.7736 36.317C43.4699 36.317 45.0832 34.7905 45.0832 31.3776V23.9219H41.1304V21.3607H47.7312V31.1945C47.7312 36.1788 45.3049 38.8751 40.7254 38.8751C36.146 38.8751 33.7646 36.1821 33.7646 31.1945Z" fill="#9D5623"/>
<path d="M52.0859 6.98828H54.869V38.4243H52.0859V6.98828Z" fill="#9D5623"/>
<path d="M59.7188 6.98828H63.4016L71.5739 31.2835V6.98828H74.177V38.4243H71.214L62.2768 11.6159V38.4243H59.7188V6.98828Z" fill="#9D5623"/>
<path d="M89.5807 31.4635H81.5433L80.2418 38.4243H77.5938L83.7447 6.98828H87.5175L93.7584 38.4243H90.9304L89.5839 31.4635H89.5807ZM89.1308 28.9922L85.5379 10.4012L82.035 28.9922H89.1308Z" fill="#9D5623"/>
<path d="M96.0938 31.4194V29.668H98.7418V31.5994C98.7418 34.7423 100.358 36.3138 102.965 36.3138C105.571 36.3138 107.187 34.7423 107.187 31.5544C107.187 28.5464 105.931 26.57 102.023 23.472C97.5785 19.9242 96.0938 17.4561 96.0938 13.8632C96.0938 9.28373 98.61 6.54248 103.01 6.54248C107.409 6.54248 109.79 9.28052 109.79 13.9982V15.2547H107.142V13.8182C107.142 10.6752 105.616 9.05878 103.01 9.05878C100.403 9.05878 98.8768 10.7202 98.8768 13.6832C98.8768 16.4663 100.223 18.3977 104.131 21.5406C108.576 25.1335 109.97 27.5566 109.97 31.3744C109.97 36.1338 107.454 38.8751 102.965 38.8751C98.4751 38.8751 96.0938 36.1371 96.0938 31.4194Z" fill="#9D5623"/>
<path d="M28.3555 67.0323V50.0578C28.3555 45.0734 30.7818 42.3804 35.3163 42.3804C39.8507 42.3804 42.322 45.0734 42.322 50.0578V52.5291H39.674V49.881C39.674 46.5131 38.1475 44.8967 35.3645 44.8967C32.5814 44.8967 31.1417 46.5131 31.1417 49.881V67.2155C31.1417 70.6284 32.6682 72.1549 35.3645 72.1549C38.0607 72.1549 39.674 70.6284 39.674 67.2155V59.7598H35.7212V57.1986H42.322V67.0323C42.322 72.0167 39.8957 74.7098 35.3163 74.7098C30.7368 74.7098 28.3555 72.0167 28.3555 67.0323Z" fill="#9D5623"/>
<path d="M45.2109 42.8269H51.9018C56.7962 42.8269 58.8626 45.0283 58.8626 49.9677V51.8991C58.8626 55.402 57.651 57.5134 55.0447 58.23V58.32C57.7828 58.9499 58.8626 61.058 58.8626 64.7859V70.4901C58.8626 71.8366 58.9525 73.1832 59.3125 74.263H56.4845C56.2595 73.3663 56.0795 72.3765 56.0795 70.4451V64.6509C56.0795 61.013 54.733 59.7565 51.4101 59.7565H47.9972V74.2597H45.2142V42.8237L45.2109 42.8269ZM51.3619 57.1534C54.5498 57.1534 56.0763 55.8069 56.0763 52.394V50.1927C56.0763 46.7797 54.8648 45.3432 51.8086 45.3432H47.9908V57.1534H51.3587H51.3619Z" fill="#9D5623"/>
<path d="M73.0905 67.3027H65.0531L63.7516 74.2635H61.1035L67.2545 42.8275H71.0273L77.2682 74.2635H74.4402L73.0937 67.3027H73.0905ZM65.548 42.7632L64.0215 41.9534C64.9631 39.752 66.0429 38.8104 67.3444 38.8104C68.376 38.8104 69.0959 39.3053 69.7258 39.752C70.2207 40.1119 70.6674 40.4269 71.2073 40.4269C71.8371 40.4269 72.3738 40.022 73.0037 38.5854L74.5302 39.3953C73.5886 41.5966 72.5088 42.5382 71.2073 42.5382C70.1307 42.5382 69.4558 42.0883 68.7809 41.5966C68.331 41.2367 67.8843 40.9218 67.3444 40.9218C66.6696 40.9218 66.0879 41.4167 65.548 42.7632ZM72.6438 64.8314L69.0509 46.2404L65.548 64.8314H72.6438Z" fill="#9D5623"/>
<path d="M79.0566 67.0323V50.0578C79.0566 45.0734 81.5729 42.3804 86.1074 42.3804C90.6419 42.3804 93.1582 45.0734 93.1582 50.0578V67.0323C93.1582 72.0167 90.6419 74.7098 86.1074 74.7098C81.5729 74.7098 79.0566 72.0167 79.0566 67.0323ZM90.3719 67.2123V49.8778C90.3719 46.5099 88.8454 44.8934 86.1042 44.8934C83.3629 44.8934 81.8365 46.5099 81.8365 49.8778V67.2123C81.8365 70.5802 83.3629 72.1517 86.1042 72.1517C88.8454 72.1517 90.3719 70.5802 90.3719 67.2123Z" fill="#9D5623"/>
<path d="M96.0938 67.2573V65.5059H98.7418V67.4373C98.7418 70.5802 100.358 72.1517 102.965 72.1517C105.571 72.1517 107.187 70.5802 107.187 67.3923C107.187 64.3843 105.931 62.4079 102.023 59.3099C97.5785 55.762 96.0938 53.2907 96.0938 49.7011C96.0938 45.1216 98.61 42.3804 103.01 42.3804C107.409 42.3804 109.79 45.1184 109.79 49.8361V51.0926H107.142V49.6561C107.142 46.5131 105.616 44.8967 103.01 44.8967C100.403 44.8967 98.8768 46.5581 98.8768 49.5211C98.8768 52.3041 100.223 54.2356 104.131 57.3785C108.576 60.9714 109.97 63.3945 109.97 67.2123C109.97 71.9717 107.454 74.713 102.965 74.713C98.4751 74.713 96.0938 71.9749 96.0938 67.2573Z" fill="#9D5623"/>
<path d="M23.5932 59.1102V56.5232H21.0062V59.1102H13.2452V55.2281C13.2452 55.0578 13.2388 54.8874 13.226 54.7171C13.0074 51.8859 10.9603 49.5656 8.26728 48.9325C7.79166 48.8201 7.29354 48.7622 6.77936 48.7622C3.20898 48.7622 0.313477 51.6577 0.313477 55.2281C0.313477 56.2532 0.551287 57.2206 0.97549 58.0786C2.02957 60.2189 4.23093 61.694 6.77936 61.694H10.6582V68.1341C10.6582 71.7045 13.5538 74.6 17.1241 74.6C19.2387 74.6 21.1155 73.5845 22.2981 72.013C23.108 70.9332 23.59 69.5867 23.59 68.1341V61.694H26.177V59.107H23.59L23.5932 59.1102ZM4.15059 58.0786C3.38252 57.3684 2.90369 56.3561 2.90369 55.2281C2.90369 53.0846 4.64228 51.3492 6.78257 51.3492C7.30961 51.3492 7.81094 51.4553 8.2705 51.6449C9.67486 52.2297 10.6615 53.6148 10.6615 55.2281C10.6615 56.3561 10.1826 57.3716 9.41456 58.0786C9.08034 58.3871 8.6947 58.6346 8.2705 58.8113C7.81416 59.0009 7.30961 59.107 6.78257 59.107C5.76706 59.107 4.84152 58.7181 4.15059 58.0786ZM17.1273 72.0162C14.9838 72.0162 13.2485 70.2777 13.2485 68.1374V61.6972H16.5585C16.7481 61.6811 16.9377 61.6715 17.1306 61.6715C17.3234 61.6715 17.513 61.6811 17.7026 61.6972H21.0127V68.1374C21.0127 70.2809 19.2741 72.0162 17.1338 72.0162H17.1273Z" fill="#5C2702"/>
<path d="M18.3892 58.0829H15.8633C15.8633 54.474 17.2034 52.7129 18.4985 51.0097C19.8032 49.2936 21.0373 47.6707 21.0373 43.689H23.5632C23.5632 48.5223 21.9403 50.6562 20.5102 52.5394C19.3276 54.0948 18.3924 55.3256 18.3924 58.0829H18.3892Z" fill="#5C2702"/>
</svg>
