<svg width="168" height="168" viewBox="0 0 168 168" fill="none" xmlns="http://www.w3.org/2000/svg">
<g clip-path="url(#clip0_15_102)">
<path d="M84 165.76C129.155 165.76 165.76 129.155 165.76 84C165.76 38.8453 129.155 2.24017 84 2.24017C38.8453 2.24017 2.24017 38.8453 2.24017 84C2.24017 129.155 38.8453 165.76 84 165.76Z" fill="#5E1E13" stroke="#D1AD54" stroke-width="6.36" stroke-miterlimit="10"/>
<path d="M108.656 114.376C107.916 114.088 84.1057 106.93 60.1188 114.376" stroke="#D1AD54" stroke-width="7.36" stroke-miterlimit="10"/>
<path d="M110.143 116.335L106.782 99.8645L116.863 98.7303C116.863 98.7303 129.748 98.7303 131.988 79.421C134.228 60.1117 108.459 60.6823 108.459 60.6823C108.459 60.6823 110.699 39.9148 87.4519 39.5062C64.2046 39.1047 63.8383 57.3854 63.8383 57.3854C63.8383 57.3854 37.3153 53.2996 35.0752 73.1724C33.3844 88.1916 38.7243 92.834 41.4364 94.2077C42.4086 94.7008 43.3808 95.215 44.2966 95.8068C46.2409 97.0607 50.3267 99.0191 57.1459 99.2727C57.7165 99.2939 58.2942 99.2939 58.8507 99.1671C59.5059 99.0262 61.0486 100.139 58.6887 116.335C58.6887 116.335 79.3224 132.805 110.136 116.335H110.143Z" stroke="#D1AD54" stroke-width="4.8" stroke-miterlimit="10"/>
<path d="M85.2328 70.2137C85.3526 69.8896 86.2472 67.5649 88.7129 66.7336C90.2979 66.1982 91.6857 66.5646 92.1929 66.7336C92.2352 66.7759 92.045 66.5857 92.045 66.5857L92.1929 66.7336C93.2566 67.2197 95.215 68.3116 95.6729 70.2137C95.8702 71.0097 96.8282 73.102 93.0664 77.688C91.5377 79.5548 88.3888 81.5344 85.2258 84.1409" fill="#D1AD54"/>
<path d="M85.2539 70.1996C85.1342 69.8756 84.2395 67.5509 81.7739 66.7196C80.1889 66.1842 78.8011 66.5505 78.2939 66.7196C78.2516 66.7619 78.4418 66.5717 78.4418 66.5717L78.2939 66.7196C77.2301 67.2057 75.2717 68.2976 74.8138 70.1996C74.6166 70.9957 73.7219 72.9541 77.4837 77.5472C79.0124 79.414 82.098 81.5274 85.261 84.1339" fill="#D1AD54"/>
<path d="M71.5311 110.932L71.6367 102.823" stroke="#D1AD54" stroke-width="5.21" stroke-miterlimit="10" stroke-linecap="round"/>
<path d="M80.2452 111.157V101.407" stroke="#D1AD54" stroke-width="5.21" stroke-miterlimit="10" stroke-linecap="round"/>
<path d="M88.3888 111.291V101.464" stroke="#D1AD54" stroke-width="5.21" stroke-miterlimit="10" stroke-linecap="round"/>
<path d="M96.1872 111.129V102.915" stroke="#D1AD54" stroke-width="5.21" stroke-miterlimit="10" stroke-linecap="round"/>
<path d="M58.8507 99.1671C58.8507 99.1671 64.1201 98.2865 65.6135 96.2224" stroke="#D1AD54" stroke-width="4.39" stroke-miterlimit="10" stroke-linecap="round"/>
</g>
<defs>
<clipPath id="clip0_15_102">
<rect width="168" height="168" fill="white"/>
</clipPath>
</defs>
</svg>
