<svg width="77" height="77" viewBox="0 0 77 77" fill="none" xmlns="http://www.w3.org/2000/svg">
<g clip-path="url(#clip0_74_23)">
<path d="M38.5 0C28.0521 0 26.7383 0.048125 22.6332 0.231C18.5281 0.4235 15.7321 1.06837 13.2825 2.02125C10.7119 2.98532 8.38405 4.50161 6.46319 6.46319C4.50161 8.38405 2.98532 10.7119 2.02125 13.2825C1.06837 15.7273 0.418687 18.5281 0.231 22.6187C0.048125 26.7334 0 28.0424 0 38.5048C0 48.9576 0.048125 50.2666 0.231 54.3716C0.4235 58.4719 1.06837 61.2679 2.02125 63.7175C3.00781 66.2489 4.32163 68.3952 6.46319 70.5368C8.59994 72.6784 10.7463 73.997 13.2777 74.9788C15.7321 75.9316 18.5233 76.5813 22.6236 76.769C26.7334 76.9519 28.0424 77 38.5 77C48.9576 77 50.2618 76.9519 54.3716 76.769C58.4671 76.5765 61.2728 75.9316 63.7223 74.9788C66.2912 74.0141 68.6173 72.4978 70.5368 70.5368C72.6784 68.3952 73.9922 66.2489 74.9788 63.7175C75.9268 61.2679 76.5765 58.4719 76.769 54.3716C76.9519 50.2666 77 48.9576 77 38.5C77 28.0424 76.9519 26.7334 76.769 22.6236C76.5765 18.5281 75.9268 15.7273 74.9788 13.2825C74.0147 10.7119 72.4984 8.38405 70.5368 6.46319C68.6159 4.50161 66.2881 2.98532 63.7175 2.02125C61.2631 1.06837 58.4622 0.418687 54.3668 0.231C50.2569 0.048125 48.9528 0 38.4904 0H38.5ZM35.0494 6.93963H38.5048C48.7843 6.93963 50.0019 6.97331 54.0588 7.161C57.8126 7.32944 59.8531 7.95988 61.2102 8.48444C63.0052 9.18225 64.2902 10.0196 65.6377 11.3671C66.9852 12.7146 67.8177 13.9948 68.5156 15.7946C69.0449 17.1469 69.6706 19.1874 69.839 22.9412C70.0267 26.9981 70.0652 28.2157 70.0652 38.4904C70.0652 48.7651 70.0267 49.9874 69.839 54.0444C69.6706 57.7981 69.0401 59.8338 68.5156 61.1909C67.8939 62.8604 66.9093 64.371 65.6329 65.6136C64.2854 66.9611 63.0053 67.7937 61.2054 68.4915C59.8579 69.0209 57.8174 69.6465 54.0588 69.8198C50.0019 70.0026 48.7843 70.0459 38.5048 70.0459C28.2253 70.0459 27.0029 70.0026 22.946 69.8198C19.1923 69.6465 17.1566 69.0209 15.7994 68.4915C14.1287 67.8719 12.6164 66.889 11.3719 65.6136C10.0931 64.3701 9.10683 62.8578 8.48444 61.1861C7.95988 59.8338 7.32944 57.7933 7.161 54.0396C6.97813 49.9826 6.93963 48.7651 6.93963 38.4807C6.93963 28.1964 6.97813 26.9885 7.161 22.9316C7.33425 19.1778 7.95988 17.1373 8.48925 15.7802C9.18706 13.9851 10.0244 12.7002 11.3719 11.3527C12.7194 10.0052 13.9996 9.17263 15.7994 8.47481C17.1566 7.94544 19.1923 7.31981 22.946 7.14656C26.4976 6.98294 27.874 6.93481 35.0494 6.93V6.93963ZM59.0542 13.3306C58.4475 13.3306 57.8467 13.4501 57.2862 13.6823C56.7257 13.9145 56.2164 14.2548 55.7874 14.6838C55.3583 15.1128 55.018 15.6221 54.7859 16.1826C54.5537 16.7432 54.4342 17.3439 54.4342 17.9506C54.4342 18.5573 54.5537 19.1581 54.7859 19.7186C55.018 20.2791 55.3583 20.7885 55.7874 21.2175C56.2164 21.6465 56.7257 21.9868 57.2862 22.2189C57.8467 22.4511 58.4475 22.5706 59.0542 22.5706C60.2795 22.5706 61.4546 22.0839 62.321 21.2175C63.1874 20.351 63.6742 19.1759 63.6742 17.9506C63.6742 16.7253 63.1874 15.5502 62.321 14.6838C61.4546 13.8174 60.2795 13.3306 59.0542 13.3306ZM38.5048 18.7302C35.8823 18.6893 33.2779 19.1705 30.8432 20.1458C28.4085 21.1211 26.1921 22.571 24.3231 24.411C22.4541 26.2511 20.9698 28.4446 19.9567 30.8638C18.9435 33.283 18.4218 35.8796 18.4218 38.5024C18.4218 41.1252 18.9435 43.7218 19.9567 46.141C20.9698 48.5602 22.4541 50.7537 24.3231 52.5938C26.1921 54.4338 28.4085 55.8837 30.8432 56.859C33.2779 57.8343 35.8823 58.3155 38.5048 58.2746C43.6953 58.1936 48.6458 56.0748 52.2877 52.3756C55.9296 48.6765 57.9709 43.6935 57.9709 38.5024C57.9709 33.3113 55.9296 28.3284 52.2877 24.6292C48.6458 20.93 43.6953 18.8112 38.5048 18.7302ZM38.5048 25.6651C40.1903 25.6651 41.8593 25.997 43.4165 26.6421C44.9737 27.2871 46.3887 28.2325 47.5805 29.4243C48.7723 30.6162 49.7177 32.0311 50.3627 33.5883C51.0078 35.1455 51.3398 36.8145 51.3398 38.5C51.3398 40.1855 51.0078 41.8545 50.3627 43.4117C49.7177 44.9689 48.7723 46.3838 47.5805 47.5757C46.3887 48.7675 44.9737 49.7129 43.4165 50.3579C41.8593 51.0029 40.1903 51.3349 38.5048 51.3349C35.1008 51.3349 31.8362 49.9827 29.4291 47.5757C27.0221 45.1687 25.6699 41.904 25.6699 38.5C25.6699 35.096 27.0221 31.8313 29.4291 29.4243C31.8362 27.0173 35.1008 25.6651 38.5048 25.6651Z" fill="white"/>
</g>
<defs>
<clipPath id="clip0_74_23">
<rect width="77" height="77" fill="white"/>
</clipPath>
</defs>
</svg>
