<svg width="540" height="111" viewBox="0 0 540 111" fill="none" xmlns="http://www.w3.org/2000/svg">
<path d="M496.139 84.0072V74.5972" stroke="white" stroke-width="4.22" stroke-miterlimit="10" stroke-linecap="round"/>
<path d="M487.159 84.1872V72.9272" stroke="white" stroke-width="4.22" stroke-miterlimit="10" stroke-linecap="round"/>
<path d="M477.789 84.0372V72.8672" stroke="white" stroke-width="4.22" stroke-miterlimit="10" stroke-linecap="round"/>
<path d="M453.159 70.2972C453.159 70.2972 459.219 69.2872 460.949 66.9272L453.159 70.2972Z" fill="white"/>
<path d="M453.159 70.2972C453.159 70.2972 459.219 69.2872 460.949 66.9272" stroke="white" stroke-width="3.55" stroke-miterlimit="10" stroke-linecap="round"/>
<path d="M29.7089 29.4478C25.7489 51.8578 21.3689 74.2078 17.1289 96.5678C16.7389 98.6378 11.3489 96.1078 11.0789 94.5578C7.22894 72.4578 3.17894 50.3778 0.0089432 28.1678C-0.221057 26.5478 4.05894 27.9278 4.35894 29.2978C7.87894 45.6378 10.9389 62.0678 13.9389 78.5178C17.0389 61.3078 20.1489 44.0978 23.4889 26.9378C23.8689 24.9878 30.1089 27.1378 29.6989 29.4478H29.7089Z" fill="white"/>
<path d="M50.219 26.7375C55.369 28.6475 58.039 33.4475 59.609 38.4175C61.629 44.7775 62.149 51.6275 62.179 58.2575C62.219 64.7575 61.699 71.3075 60.499 77.7075C59.579 82.6275 58.319 87.8575 55.629 92.1475C52.769 96.7275 48.509 98.3575 43.289 96.0175C38.799 94.0075 36.259 89.7975 34.669 85.3375C30.539 73.7675 30.749 60.1875 32.629 48.1975C33.809 40.6475 37.129 25.9375 46.859 26.5175C47.689 25.8975 49.489 26.4675 50.219 26.7475V26.7375ZM55.729 52.3575C55.449 47.1075 54.819 41.7675 53.219 36.7475C52.639 34.9375 51.879 33.1775 50.859 31.5675C50.419 30.8775 50.149 30.5175 49.469 29.8875C49.639 30.0475 49.579 29.9175 49.489 29.7775C49.469 29.7775 49.429 29.7675 49.379 29.7575C49.389 29.7775 49.399 29.8075 49.419 29.8375C49.419 29.8175 49.319 29.7675 49.229 29.7175C49.159 29.6975 49.089 29.6775 49.039 29.6575C48.839 29.5875 48.559 29.4575 48.259 29.2875C44.759 29.7375 42.419 34.8875 41.349 37.5875C39.139 43.1275 38.169 49.2175 37.659 55.1275C36.739 65.6575 36.819 77.8175 41.019 87.7175C41.769 89.4775 42.679 91.1875 43.899 92.5475C44.039 92.6975 44.189 92.8475 44.339 92.9875C44.389 93.0275 44.459 93.0875 44.489 93.1175C44.619 93.2275 44.689 93.2975 44.719 93.3275C44.759 93.3375 44.839 93.3775 45.009 93.4675C44.339 93.1075 44.979 93.4675 45.129 93.4275C45.469 93.3475 45.809 93.2975 46.139 93.1675C48.859 92.0375 50.659 88.0075 51.719 85.2175C55.609 74.9775 56.309 63.2075 55.739 52.3675L55.729 52.3575ZM49.369 29.7275C49.429 29.7475 49.469 29.7675 49.489 29.7675C49.389 29.6175 49.259 29.4675 49.369 29.7275Z" fill="white"/>
<path d="M94.719 29.4478C90.759 51.8578 86.379 74.2078 82.139 96.5678C81.749 98.6378 76.359 96.1078 76.089 94.5578C72.239 72.4578 68.179 50.3778 65.029 28.1678C64.799 26.5478 69.079 27.9278 69.379 29.2978C72.899 45.6378 75.959 62.0678 78.959 78.5178C82.059 61.3078 85.169 44.0978 88.509 26.9378C88.889 24.9878 95.129 27.1378 94.719 29.4478Z" fill="white"/>
<path d="M115.229 26.7375C120.379 28.6475 123.049 33.4475 124.619 38.4175C126.639 44.7775 127.159 51.6275 127.189 58.2575C127.229 64.7575 126.709 71.3075 125.509 77.7075C124.589 82.6275 123.329 87.8575 120.639 92.1475C117.779 96.7275 113.519 98.3575 108.299 96.0175C103.809 94.0075 101.269 89.7975 99.679 85.3375C95.549 73.7675 95.759 60.1875 97.639 48.1975C98.819 40.6475 102.139 25.9375 111.869 26.5175C112.699 25.8975 114.499 26.4675 115.229 26.7475V26.7375ZM120.739 52.3575C120.459 47.1075 119.829 41.7675 118.229 36.7475C117.649 34.9375 116.889 33.1775 115.869 31.5675C115.429 30.8775 115.159 30.5175 114.479 29.8875C114.649 30.0475 114.589 29.9175 114.499 29.7775C114.479 29.7775 114.439 29.7675 114.389 29.7575C114.399 29.7775 114.409 29.8075 114.429 29.8375C114.429 29.8175 114.329 29.7675 114.239 29.7175C114.169 29.6975 114.099 29.6775 114.049 29.6575C113.849 29.5875 113.569 29.4575 113.269 29.2875C109.769 29.7375 107.429 34.8875 106.359 37.5875C104.149 43.1275 103.179 49.2175 102.669 55.1275C101.749 65.6575 101.829 77.8175 106.029 87.7175C106.779 89.4775 107.689 91.1875 108.909 92.5475C109.049 92.6975 109.199 92.8475 109.349 92.9875C109.399 93.0275 109.469 93.0875 109.499 93.1175C109.629 93.2275 109.699 93.2975 109.729 93.3275C109.769 93.3375 109.849 93.3775 110.019 93.4675C109.349 93.1075 109.989 93.4675 110.139 93.4275C110.479 93.3475 110.819 93.2975 111.149 93.1675C113.869 92.0375 115.669 88.0075 116.729 85.2175C120.619 74.9775 121.319 63.2075 120.749 52.3675L120.739 52.3575ZM114.379 29.7275C114.439 29.7475 114.479 29.7675 114.499 29.7675C114.399 29.6175 114.269 29.4675 114.379 29.7275Z" fill="white"/>
<path d="M172.849 35.1777C179.149 44.0877 179.789 56.5677 178.189 66.9977C176.359 78.9577 170.569 90.7977 159.669 96.8477C158.639 98.3177 153.579 96.4577 153.549 94.5977C153.389 83.3277 153.619 72.0477 153.749 60.7777C153.869 49.7577 153.569 38.5777 154.669 27.6077C154.279 26.9277 154.479 26.1877 155.489 26.2177C162.569 26.4077 168.759 29.3877 172.859 35.1877L172.849 35.1777ZM172.949 49.8977C172.029 41.7277 168.709 30.2177 159.129 29.2977C160.079 40.2577 159.769 51.3777 159.829 62.3777C159.879 71.4877 159.999 80.6077 159.919 89.7277C162.839 87.1577 165.269 84.0777 167.189 80.5977C172.269 71.3877 174.119 60.3077 172.949 49.8977Z" fill="white"/>
<path d="M201.369 26.7375C206.519 28.6475 209.189 33.4475 210.759 38.4175C212.779 44.7775 213.299 51.6275 213.329 58.2575C213.369 64.7575 212.849 71.3075 211.649 77.7075C210.729 82.6275 209.469 87.8575 206.779 92.1475C203.919 96.7275 199.659 98.3575 194.439 96.0175C189.949 94.0075 187.409 89.7975 185.819 85.3375C181.689 73.7675 181.899 60.1875 183.779 48.1975C184.959 40.6475 188.279 25.9375 198.009 26.5175C198.839 25.8975 200.639 26.4675 201.369 26.7475V26.7375ZM206.879 52.3575C206.599 47.1075 205.969 41.7675 204.369 36.7475C203.789 34.9375 203.029 33.1775 202.009 31.5675C201.569 30.8775 201.299 30.5175 200.619 29.8875C200.789 30.0475 200.729 29.9175 200.639 29.7775C200.619 29.7775 200.579 29.7675 200.529 29.7575C200.539 29.7775 200.549 29.8075 200.569 29.8375C200.569 29.8175 200.469 29.7675 200.379 29.7175C200.309 29.6975 200.239 29.6775 200.189 29.6575C199.989 29.5875 199.709 29.4575 199.409 29.2875C195.909 29.7375 193.569 34.8875 192.499 37.5875C190.289 43.1275 189.319 49.2175 188.809 55.1275C187.889 65.6575 187.969 77.8175 192.169 87.7175C192.919 89.4775 193.829 91.1875 195.049 92.5475C195.189 92.6975 195.339 92.8475 195.489 92.9875C195.539 93.0275 195.609 93.0875 195.639 93.1175C195.769 93.2275 195.839 93.2975 195.879 93.3275C195.919 93.3375 195.999 93.3775 196.169 93.4675C195.499 93.1075 196.139 93.4675 196.289 93.4275C196.629 93.3475 196.969 93.2975 197.299 93.1675C200.019 92.0375 201.819 88.0075 202.879 85.2175C206.769 74.9775 207.469 63.2075 206.899 52.3675L206.879 52.3575ZM200.509 29.7275C200.569 29.7475 200.609 29.7675 200.629 29.7675C200.529 29.6175 200.399 29.4675 200.509 29.7275Z" fill="white"/>
<path d="M266.119 54.1175C265.479 58.8975 263.819 63.5775 260.859 67.4175C257.389 71.9075 252.449 74.2375 246.919 75.0975C246.629 75.1375 246.279 75.0975 245.909 75.0075C245.789 82.0875 245.649 89.1775 245.349 96.2475C245.239 98.7475 239.029 96.6475 239.039 94.6075C239.139 83.1675 239.629 71.7175 240.019 60.2875C240.389 49.6975 240.359 38.9675 241.569 28.4175C241.289 28.2375 241.049 28.0275 240.869 27.8075C240.199 26.9875 240.469 26.2975 241.529 26.1775C247.109 25.5775 252.879 26.4175 257.569 29.6775C265.259 35.0275 267.279 45.3675 266.109 54.1275L266.119 54.1175ZM260.799 46.6875C260.689 42.0075 259.619 36.9475 256.659 33.1875C254.019 29.8375 250.409 28.8975 246.159 29.0675C246.879 40.0975 246.309 51.2575 246.109 62.2975C246.059 65.1375 246.019 67.9875 245.969 70.8275C256.169 67.8975 261.029 56.9175 260.789 46.6875H260.799Z" fill="white"/>
<path d="M276.269 29.3577C277.209 40.0577 276.869 50.9377 276.909 61.6677C276.909 62.6077 276.909 63.5477 276.919 64.4877C278.169 64.4977 279.419 64.5877 280.519 64.5777C283.359 64.5477 286.209 64.4577 289.049 64.5877C290.199 64.6377 291.929 65.3977 292.579 66.4077C293.159 67.3277 292.749 68.0177 291.649 68.0677C288.739 68.2077 285.789 68.0777 282.879 68.0477C280.919 68.0277 278.909 68.0877 276.939 67.9077C276.989 76.1977 277.049 84.4977 276.909 92.7877C278.019 92.8277 279.109 92.8977 280.079 92.8877C283.069 92.8677 286.069 92.7777 289.059 92.9177C290.209 92.9677 291.939 93.7277 292.589 94.7377C293.169 95.6477 292.759 96.3477 291.659 96.3977C288.609 96.5477 285.529 96.3977 282.479 96.3677C279.529 96.3377 276.419 96.5377 273.549 95.8177C273.199 95.7277 272.299 95.2877 271.719 94.7777C271.049 94.3077 270.579 93.7477 270.579 93.1977C270.439 82.0177 270.679 70.8177 270.829 59.6377C270.969 48.7377 270.669 37.6877 271.869 26.8477C271.919 26.3577 272.499 26.2577 273.209 26.3777C275.449 25.7277 278.289 26.0977 280.539 26.0777C283.379 26.0477 286.229 25.9577 289.069 26.0877C290.219 26.1377 291.949 26.8977 292.599 27.9077C293.179 28.8277 292.769 29.5177 291.669 29.5677C288.759 29.7077 285.809 29.5777 282.899 29.5477C280.709 29.5277 278.469 29.6077 276.289 29.3377L276.269 29.3577Z" fill="white"/>
<path d="M315.969 35.1777C322.269 44.0877 322.909 56.5677 321.309 66.9977C319.479 78.9577 313.689 90.7977 302.789 96.8477C301.759 98.3177 296.699 96.4577 296.669 94.5977C296.509 83.3277 296.739 72.0477 296.869 60.7777C296.989 49.7577 296.689 38.5777 297.789 27.6077C297.399 26.9277 297.599 26.1877 298.609 26.2177C305.689 26.4077 311.879 29.3877 315.979 35.1877L315.969 35.1777ZM316.079 49.8977C315.159 41.7277 311.839 30.2177 302.259 29.2977C303.209 40.2577 302.899 51.3777 302.959 62.3777C303.009 71.4877 303.129 80.6077 303.049 89.7277C305.969 87.1577 308.399 84.0777 310.319 80.5977C315.399 71.3877 317.249 60.3077 316.079 49.8977Z" fill="white"/>
<path d="M351.439 74.0076C351.589 81.7376 351.979 89.6076 351.019 97.2976C350.779 99.2076 345.009 97.0176 344.879 95.2576C344.339 88.3076 344.709 81.2776 344.799 74.2876C340.079 74.4176 335.329 74.5176 330.609 74.4776C330.419 81.7976 330.489 89.1176 330.589 96.3776C330.609 98.0276 326.379 96.6676 326.339 95.2676C326.139 88.0576 326.129 80.8476 326.339 73.6376C326.169 73.5076 326.019 73.3676 325.899 73.2076C325.399 72.5276 325.479 71.8476 326.399 71.7676C326.449 70.4276 326.499 69.0876 326.559 67.7476C326.849 61.4276 328.049 19.4376 342.529 27.8176C345.619 29.6076 346.979 33.2176 347.879 36.4776C349.319 41.7076 349.909 47.1876 350.389 52.5776C351.019 59.6976 351.279 66.8476 351.419 73.9876L351.439 74.0076ZM343.909 71.5676C344.189 71.5676 344.499 71.5976 344.819 71.6676C344.819 71.3776 344.819 71.0876 344.819 70.7976C344.779 63.4676 344.619 56.1276 344.059 48.8176C343.699 44.0676 343.249 39.2376 342.059 34.6176C341.679 33.1576 341.289 31.6476 340.539 30.3276C340.509 30.2776 340.459 30.1976 340.409 30.1076C340.359 30.1276 340.309 30.1376 340.299 30.1476C337.969 31.1976 336.789 33.8676 335.909 36.0876C334.509 39.6276 333.699 43.4076 333.059 47.1476C331.669 55.2176 330.999 63.4176 330.709 71.6476C335.109 71.5476 339.529 71.5576 343.919 71.5776L343.909 71.5676ZM339.999 29.4676C339.999 29.4676 339.949 29.4176 339.939 29.4176C339.909 29.4176 339.939 29.4476 339.999 29.4676Z" fill="white"/>
<path d="M363.449 52.3976C362.799 60.0376 362.729 67.7576 363.279 75.4076C363.679 81.0076 364.069 87.4676 366.569 92.6076C366.629 92.7376 366.699 92.8576 366.769 92.9876C367.179 92.6476 367.599 92.2776 367.639 92.2276C370.669 88.5776 371.659 82.8376 372.649 78.3476C373.079 76.3776 379.319 78.5776 378.859 80.8576C378.189 84.2476 377.389 87.6276 376.069 90.8276C375.099 93.1876 373.709 96.0376 371.199 97.0676C367.319 98.6676 362.769 95.9076 360.899 92.5176C357.669 86.6476 357.339 78.8376 356.999 72.3076C356.529 63.4076 356.869 54.4076 358.109 45.5776C358.629 41.8676 359.309 38.1476 360.469 34.5776C361.239 32.2276 362.229 29.6376 364.069 27.8876C367.019 25.0876 372.079 26.5376 374.679 29.0976C378.159 32.5276 378.629 37.9576 378.949 42.5576C379.069 44.2476 374.819 42.7976 374.599 41.4276C374.209 39.0076 373.629 36.5276 372.849 34.1976C372.469 33.0476 371.999 31.8876 371.369 30.8476C371.309 30.7576 370.899 30.2476 370.659 29.9176C370.099 30.2776 369.459 30.3376 368.759 31.1876C368.089 32.0076 367.599 33.0276 367.179 33.9876C364.699 39.6876 363.969 46.2776 363.449 52.4176V52.3976ZM365.889 93.5776C365.889 93.5776 365.919 93.5876 365.949 93.5776C365.909 93.5776 365.889 93.5776 365.889 93.5776ZM367.609 94.2176C367.609 94.2176 367.619 94.2276 367.629 94.2376C367.649 94.2376 367.629 94.2376 367.609 94.2176ZM370.559 29.7476C370.519 29.6776 370.479 29.6276 370.489 29.6176C370.439 29.7176 370.489 29.7476 370.559 29.7476Z" fill="white"/>
<path d="M400.899 26.7375C406.049 28.6475 408.719 33.4475 410.289 38.4175C412.309 44.7775 412.829 51.6275 412.859 58.2575C412.899 64.7575 412.379 71.3075 411.179 77.7075C410.259 82.6275 408.999 87.8575 406.309 92.1475C403.449 96.7275 399.189 98.3575 393.969 96.0175C389.479 94.0075 386.939 89.7975 385.349 85.3375C381.219 73.7675 381.429 60.1875 383.309 48.1975C384.489 40.6475 387.809 25.9375 397.539 26.5175C398.369 25.8975 400.169 26.4675 400.899 26.7475V26.7375ZM406.409 52.3575C406.129 47.1075 405.499 41.7675 403.899 36.7475C403.319 34.9375 402.559 33.1775 401.539 31.5675C401.099 30.8775 400.829 30.5175 400.149 29.8875C400.319 30.0475 400.259 29.9175 400.169 29.7775C400.149 29.7775 400.109 29.7675 400.059 29.7575C400.069 29.7775 400.079 29.8075 400.099 29.8375C400.099 29.8175 399.999 29.7675 399.909 29.7175C399.839 29.6975 399.769 29.6775 399.719 29.6575C399.519 29.5875 399.239 29.4575 398.939 29.2875C395.439 29.7375 393.099 34.8875 392.029 37.5875C389.819 43.1275 388.849 49.2175 388.339 55.1275C387.419 65.6575 387.499 77.8175 391.699 87.7175C392.449 89.4775 393.359 91.1875 394.579 92.5475C394.719 92.6975 394.869 92.8475 395.019 92.9875C395.069 93.0275 395.139 93.0875 395.169 93.1175C395.299 93.2275 395.369 93.2975 395.409 93.3275C395.449 93.3375 395.529 93.3775 395.699 93.4675C395.029 93.1075 395.669 93.4675 395.819 93.4275C396.159 93.3475 396.499 93.2975 396.829 93.1675C399.549 92.0375 401.349 88.0075 402.409 85.2175C406.299 74.9775 406.999 63.2075 406.429 52.3675L406.409 52.3575ZM400.039 29.7275C400.099 29.7475 400.139 29.7675 400.159 29.7675C400.059 29.6175 399.929 29.4675 400.039 29.7275Z" fill="white"/>
<path d="M108.949 22.3376C109.379 22.6676 109.999 23.0676 110.829 23.3276C110.829 23.3276 110.949 23.3676 111.079 23.3976C113.139 23.9576 120.639 18.0876 120.639 18.0876C126.209 13.7276 129.009 13.1476 129.139 10.6476C129.149 10.3976 129.249 8.65762 128.079 7.45762C127.289 6.64762 126.289 6.45762 125.959 6.39762C123.339 5.90762 120.939 8.39762 116.399 11.7076C110.719 15.8476 108.079 16.6076 107.899 19.1476C107.809 20.4476 108.419 21.5776 108.959 22.3376H108.949Z" fill="white"/>
<path d="M369.399 96.6077C369.329 97.0677 369.269 97.5877 369.329 98.2477C373.659 97.9877 375.689 99.3577 375.689 103.358C375.689 108.078 370.909 110.828 366.379 110.828C363.299 110.828 363.039 106.108 366.449 106.568C368.879 106.958 371.559 105.588 371.559 103.688C371.559 102.708 370.969 102.118 369.459 102.118C368.799 102.118 367.949 102.248 366.839 102.508C365.069 102.898 364.939 100.348 364.939 98.7677C364.939 98.1777 365.009 97.3277 365.139 96.3477L369.399 96.6077Z" fill="white"/>
<path d="M510.489 87.7273C509.639 87.3973 482.229 79.1973 454.609 87.7273" stroke="white" stroke-width="5.95" stroke-miterlimit="10"/>
<path d="M512.199 89.9674L508.329 71.0974L519.939 69.7974C519.939 69.7974 534.769 69.7974 537.349 47.6774C539.929 25.5574 510.269 26.2074 510.269 26.2074C510.269 26.2074 512.849 2.40741 486.089 1.94741C459.329 1.48741 458.909 22.4374 458.909 22.4374C458.909 22.4374 428.369 17.7574 425.799 40.5274C423.849 57.7374 429.999 63.0574 433.129 64.6274C434.249 65.1974 435.359 65.7774 436.419 66.4574C438.659 67.8974 443.359 70.1374 451.219 70.4274C451.869 70.4474 452.539 70.4474 453.179 70.3074C453.929 70.1474 455.709 71.4174 452.989 89.9774C452.989 89.9774 476.749 108.847 512.209 89.9774L512.199 89.9674Z" stroke="white" stroke-width="3.88" stroke-miterlimit="10"/>
<path d="M467.749 83.7773L467.879 74.4873" stroke="white" stroke-width="4.22" stroke-miterlimit="10" stroke-linecap="round"/>
<path d="M483.539 37.117C483.679 36.747 484.709 34.0771 487.549 33.1271C489.379 32.5171 490.969 32.9371 491.559 33.1271C491.609 33.1671 491.389 32.957 491.389 32.957L491.559 33.1271C492.779 33.6871 495.039 34.937 495.569 37.117C495.789 38.027 496.899 40.427 492.569 45.687C490.809 47.827 487.179 50.0971 483.539 53.0771" fill="white"/>
<path d="M483.549 37.1073C483.409 36.7373 482.379 34.0673 479.539 33.1173C477.709 32.5073 476.119 32.9273 475.529 33.1173C475.479 33.1573 475.699 32.9473 475.699 32.9473L475.529 33.1173C474.309 33.6773 472.049 34.9273 471.519 37.1073C471.299 38.0173 470.259 40.2673 474.589 45.5273C476.349 47.6673 479.899 50.0873 483.539 53.0673" fill="white"/>
</svg>
