<svg width="377" height="298" viewBox="0 0 377 298" fill="none" xmlns="http://www.w3.org/2000/svg">
<path d="M55.7326 48.891C56.1415 46.2333 64.9324 49.0954 64.3191 52.3665C58.7992 83.8502 52.666 115.13 46.7372 146.613C46.1239 149.475 38.5596 145.796 38.1508 143.751C32.8353 112.676 27.111 81.8058 22.8178 50.5265C22.4089 48.2777 28.3376 50.3221 28.7465 52.162C33.8575 75.0593 38.1508 98.161 42.2396 121.263C46.5328 97.1388 51.0305 73.0149 55.7326 48.891ZM93.1611 48.6866C100.316 51.3443 104.201 58.0908 106.245 65.0418C109.107 73.8327 109.925 83.4414 109.925 92.8456C109.925 101.841 109.312 111.041 107.676 120.036C106.245 126.987 104.61 134.347 100.725 140.276C96.841 146.818 90.7078 149.067 83.348 145.796C77.2148 142.933 73.5349 137.005 71.286 130.871C65.5617 114.516 65.7661 95.5033 68.4239 78.7392C70.0594 68.1084 74.7615 47.4599 88.459 48.2777C89.6856 47.4599 92.1389 48.2777 93.1611 48.6866ZM92.1389 52.7754C91.9345 52.5709 91.73 52.3665 91.9345 52.7754C92.1389 52.7754 92.1389 52.7754 92.1389 52.7754ZM95.2055 130.667C100.725 116.152 101.748 99.7966 100.93 84.4636C100.521 77.1037 99.7032 69.7439 97.4543 62.5885C96.6366 60.1352 95.4099 57.6819 93.9789 55.4331C93.3655 54.4109 93.1611 53.7976 92.1389 52.9798C92.3433 53.1842 92.3433 52.9798 92.1389 52.7754C92.1389 52.7754 92.1389 52.7754 91.9345 52.7754C91.9345 52.7754 91.9345 52.9798 92.1389 52.9798C91.9345 52.9798 91.9345 52.7754 91.73 52.7754H91.5256C91.3211 52.5709 90.9123 52.3665 90.5034 52.162C85.5968 52.7754 82.1213 59.9308 80.6903 63.8151C77.6237 71.5838 76.1926 80.1703 75.5793 88.3479C74.1482 103.272 74.3526 120.241 80.2814 134.142C81.3036 136.596 82.5302 139.049 84.3702 140.889C84.3702 141.093 84.7791 141.298 84.9835 141.502C84.9835 141.502 84.9835 141.707 85.1879 141.707C85.3924 141.911 85.3924 141.911 85.3924 141.911C85.3924 141.911 85.5968 142.116 85.8013 142.116C84.9835 141.707 85.8013 142.116 86.0057 142.116C86.4146 141.911 87.0279 141.911 87.4368 141.707C91.3211 140.276 93.7744 134.551 95.2055 130.667ZM146.972 48.891C147.381 46.2333 156.172 49.0954 155.558 52.3665C150.039 83.8502 143.905 115.13 137.977 146.613C137.363 149.475 129.799 145.796 129.39 143.751C124.075 112.676 118.35 81.8058 114.057 50.5265C113.648 48.2777 119.577 50.3221 119.986 52.162C125.097 75.0593 129.39 98.161 133.479 121.263C137.772 97.1388 142.27 73.0149 146.972 48.891ZM184.4 48.6866C191.556 51.3443 195.44 58.0908 197.485 65.0418C200.347 73.8327 201.165 83.4414 201.165 92.8456C201.165 101.841 200.551 111.041 198.916 120.036C197.485 126.987 195.849 134.347 191.965 140.276C188.08 146.818 181.947 149.067 174.587 145.796C168.454 142.933 164.774 137.005 162.525 130.871C156.801 114.516 157.005 95.5033 159.663 78.7392C161.299 68.1084 166.001 47.4599 179.698 48.2777C180.925 47.4599 183.378 48.2777 184.4 48.6866ZM183.378 52.7754C183.174 52.5709 182.969 52.3665 183.174 52.7754C183.378 52.7754 183.378 52.7754 183.378 52.7754ZM186.445 130.667C191.965 116.152 192.987 99.7966 192.169 84.4636C191.76 77.1037 190.943 69.7439 188.694 62.5885C187.876 60.1352 186.649 57.6819 185.218 55.4331C184.605 54.4109 184.4 53.7976 183.378 52.9798C183.583 53.1842 183.583 52.9798 183.378 52.7754C183.378 52.7754 183.378 52.7754 183.174 52.7754C183.174 52.7754 183.174 52.9798 183.378 52.9798C183.174 52.9798 183.174 52.7754 182.969 52.7754H182.765C182.56 52.5709 182.152 52.3665 181.743 52.162C176.836 52.7754 173.361 59.9308 171.93 63.8151C168.863 71.5838 167.432 80.1703 166.819 88.3479C165.388 103.272 165.592 120.241 171.521 134.142C172.543 136.596 173.77 139.049 175.61 140.889C175.61 141.093 176.018 141.298 176.223 141.502C176.223 141.502 176.223 141.707 176.427 141.707C176.632 141.911 176.632 141.911 176.632 141.911C176.632 141.911 176.836 142.116 177.041 142.116C176.223 141.707 177.041 142.116 177.245 142.116C177.654 141.911 178.267 141.911 178.676 141.707C182.56 140.276 185.014 134.551 186.445 130.667Z" fill="white"/>
<path d="M141.275 172.377C151.21 179.255 153.885 192.82 152.356 204.284C151.592 210.589 149.49 216.703 145.478 221.861C140.893 227.593 134.588 230.65 127.327 231.796C126.945 231.987 126.372 231.796 125.99 231.796C125.799 240.967 125.608 250.329 125.226 259.5C125.035 262.939 116.819 260.073 117.01 257.398C117.01 242.496 117.774 227.402 118.156 212.499C118.73 198.552 118.73 184.413 120.258 170.657C119.876 170.466 119.494 170.084 119.303 169.893C118.539 168.746 118.73 167.791 120.258 167.791C127.518 167.027 135.161 167.982 141.275 172.377ZM125.99 226.256C139.364 222.434 145.669 208.105 145.478 194.54C145.287 188.426 143.949 181.93 139.937 176.962C136.498 172.568 131.722 171.23 126.181 171.612C127.136 185.942 126.372 200.654 126.181 215.174C126.181 218.804 125.99 222.625 125.99 226.256ZM174.312 172.186C171.446 172.186 168.58 172.186 165.714 171.995C166.86 185.942 166.478 200.271 166.478 214.219C166.478 215.556 166.478 216.703 166.478 218.04C168.198 218.04 169.917 218.04 171.255 218.04C175.076 218.04 178.706 217.849 182.527 218.04C184.056 218.231 186.157 219.186 187.113 220.524C187.877 221.67 187.304 222.625 185.775 222.625C181.954 222.816 178.133 222.625 174.312 222.625C171.828 222.625 169.153 222.625 166.669 222.434C166.669 233.325 166.669 244.215 166.478 255.106C168.007 255.106 169.344 255.106 170.681 255.106C174.694 255.106 178.515 255.106 182.527 255.297C184.056 255.297 186.157 256.252 187.113 257.589C187.877 258.736 187.304 259.691 185.775 259.882C181.954 260.073 177.751 259.882 173.738 259.691C169.917 259.691 165.905 259.882 162.084 259.118C161.702 258.927 160.555 258.354 159.791 257.589C158.836 257.016 158.263 256.252 158.263 255.679C158.072 240.967 158.263 226.256 158.454 211.544C158.645 197.405 158.263 182.885 159.982 168.555C159.982 167.982 160.746 167.791 161.702 167.982C164.568 167.218 168.389 167.6 171.255 167.6C175.076 167.6 178.706 167.409 182.527 167.6C184.056 167.791 186.157 168.746 187.113 170.084C187.877 171.23 187.304 172.186 185.775 172.186C181.954 172.377 178.133 172.186 174.312 172.186ZM194.891 167.791C204.253 167.982 212.277 171.995 217.627 179.446C226.034 191.292 226.798 207.532 224.696 221.288C222.212 236.955 214.761 252.431 200.432 260.455C199.094 262.366 192.407 259.882 192.407 257.398C192.216 242.687 192.407 227.784 192.598 213.072C192.789 198.552 192.407 184.031 193.936 169.511C193.362 168.746 193.553 167.791 194.891 167.791ZM210.367 239.057C216.863 227.02 219.347 212.499 217.818 198.743C216.672 188.044 212.277 172.95 199.667 171.803C201.005 186.133 200.623 200.845 200.623 215.174C200.623 227.211 200.814 239.057 200.814 251.093C204.635 247.654 207.692 243.642 210.367 239.057ZM262.91 202.373C263.674 211.735 264.056 221.097 264.247 230.459C264.438 240.585 264.82 250.902 263.674 261.028C263.292 263.512 255.84 260.646 255.649 258.354C254.885 249.183 255.458 240.012 255.458 230.841C249.344 231.032 243.039 231.032 236.926 231.032C236.734 240.585 236.734 250.329 236.926 259.691C236.926 261.984 231.385 260.073 231.385 258.354C231.003 248.801 231.003 239.439 231.385 229.886C231.003 229.695 230.812 229.695 230.812 229.313C230.047 228.548 230.238 227.593 231.385 227.593C231.385 225.682 231.576 223.963 231.576 222.243C231.958 214.028 233.486 159.002 252.592 169.893C256.605 172.186 258.324 176.962 259.471 181.165C261.381 188.044 262.145 195.304 262.91 202.373ZM250.491 172.568C250.682 172.568 250.873 172.377 250.491 172.568V172.568ZM236.926 227.402C242.848 227.211 248.58 227.211 254.312 227.211C254.694 227.211 255.076 227.211 255.458 227.402C255.458 227.02 255.458 226.638 255.458 226.256C255.458 216.511 255.267 206.958 254.503 197.405C254.121 191.101 253.548 184.796 251.828 178.873C251.446 176.771 250.873 174.86 249.918 173.141L249.727 172.95H249.536C246.479 174.287 244.95 177.726 243.804 180.783C241.893 185.369 240.938 190.336 240.174 195.304C238.263 205.812 237.308 216.511 236.926 227.402ZM284.87 177.917C281.622 185.369 280.666 194.157 279.902 202.182C279.138 212.117 278.947 222.243 279.711 232.178C280.284 239.63 280.666 248.036 284.105 254.723C284.105 254.915 284.105 255.106 284.296 255.297C284.87 254.915 285.443 254.341 285.443 254.341C289.455 249.565 290.601 241.922 291.939 236.191C292.512 233.516 300.728 236.382 300.154 239.439C299.199 243.833 298.244 248.227 296.524 252.431C295.187 255.488 293.276 259.309 290.028 260.646C285.061 262.748 278.947 259.118 276.654 254.723C272.26 246.89 271.878 236.764 271.495 228.166C270.922 216.511 271.304 204.666 272.833 193.202C273.597 188.235 274.552 183.458 276.081 178.682C277.036 175.625 278.374 172.186 280.666 169.893C284.679 166.263 291.175 168.173 294.614 171.612C299.199 176.007 299.772 183.076 300.154 189.19C300.346 191.483 294.805 189.572 294.614 187.661C294.041 184.604 293.276 181.356 292.321 178.299C291.748 176.771 291.175 175.243 290.219 173.905C290.219 173.714 289.646 172.95 289.455 172.568C288.691 173.141 287.736 173.141 286.971 174.287C286.016 175.434 285.443 176.771 284.87 177.917ZM289.073 172.186C289.073 172.377 289.073 172.377 289.264 172.377L289.073 172.186ZM328.963 168.555C335.65 171.039 339.28 177.344 341.191 183.84C343.865 192.056 344.63 201.036 344.63 209.824C344.63 218.231 344.056 226.829 342.528 235.235C341.191 241.731 339.662 248.61 336.032 254.15C332.402 260.264 326.67 262.366 319.792 259.309C314.06 256.634 310.621 251.093 308.519 245.362C303.17 230.077 303.361 212.308 305.844 196.641C307.373 186.706 311.767 167.409 324.568 168.173C325.715 167.409 328.007 168.173 328.963 168.555ZM328.007 172.377C327.816 172.186 327.625 171.995 327.816 172.377C328.007 172.377 328.007 172.377 328.007 172.377ZM330.873 245.17C336.032 231.605 336.987 216.32 336.223 201.991C335.841 195.113 335.077 188.235 332.975 181.548C332.211 179.255 331.064 176.962 329.727 174.86C329.154 173.905 328.963 173.332 328.007 172.568C328.199 172.759 328.199 172.568 328.007 172.377C328.007 172.377 328.007 172.377 327.816 172.377C327.816 172.377 327.816 172.568 328.007 172.568C327.816 172.568 327.816 172.377 327.625 172.377H327.434C327.243 172.186 326.861 171.995 326.479 171.803C321.894 172.377 318.645 179.064 317.308 182.694C314.442 189.954 313.105 197.979 312.532 205.621C311.194 219.568 311.385 235.426 316.926 248.419C317.881 250.711 319.028 253.004 320.747 254.723C320.747 254.915 321.129 255.106 321.32 255.297C321.32 255.297 321.32 255.488 321.511 255.488C321.702 255.679 321.702 255.679 321.702 255.679C321.702 255.679 321.894 255.87 322.085 255.87C321.32 255.488 322.085 255.87 322.276 255.87C322.658 255.679 323.231 255.679 323.613 255.488C327.243 254.15 329.536 248.801 330.873 245.17Z" fill="white"/>
<path d="M287.854 261.33C287.784 261.87 287.714 262.49 287.784 263.27C292.464 262.96 294.654 264.59 294.654 269.31C294.654 274.89 289.484 278.14 284.594 278.14C281.264 278.14 280.984 272.56 284.664 273.1C287.284 273.57 290.194 271.94 290.194 269.69C290.194 268.53 289.554 267.83 287.924 267.83C287.214 267.83 286.294 267.98 285.094 268.29C283.184 268.76 283.044 265.73 283.044 263.87C283.044 263.17 283.114 262.17 283.254 261L287.864 261.31L287.854 261.33Z" fill="white"/>
<path d="M189.16 46.2968C189.62 46.6568 190.3 47.0868 191.19 47.3668C191.19 47.3668 191.32 47.4068 191.46 47.4468C193.69 48.0468 201.8 41.7068 201.8 41.7068C207.82 36.9968 210.85 36.3668 210.99 33.6668C211 33.3968 211.1 31.5168 209.84 30.2168C208.99 29.3368 207.9 29.1368 207.54 29.0668C204.71 28.5368 202.11 31.2268 197.2 34.8068C191.06 39.2768 188.2 40.1068 188.01 42.8468C187.91 44.2568 188.57 45.4668 189.16 46.2968Z" fill="white"/>
<path d="M26.838 186.493C33.4232 186.627 39.0675 189.449 42.8305 194.691C48.7436 203.023 49.2812 214.446 47.8029 224.122C46.0558 235.142 40.8146 246.028 30.7354 251.672C29.7946 253.016 25.091 251.269 25.091 249.522C24.9566 239.174 25.091 228.691 25.2254 218.343C25.3598 208.13 25.091 197.916 26.1661 187.702C25.7629 187.165 25.8973 186.493 26.838 186.493ZM37.7236 236.62C42.2929 228.154 44.04 217.94 42.9648 208.264C42.1585 200.738 39.0675 190.121 30.1978 189.315C31.1385 199.394 30.8697 209.742 30.8697 219.822C30.8697 228.288 31.0041 236.62 31.0041 245.087C33.6919 242.668 35.8422 239.846 37.7236 236.62ZM69.1719 187.03C73.8756 188.777 76.429 193.212 77.7729 197.782C79.6544 203.56 80.1919 209.877 80.1919 216.059C80.1919 221.972 79.7888 228.019 78.7136 233.932C77.7729 238.502 76.6978 243.34 74.1444 247.237C71.591 251.538 67.5593 253.016 62.7212 250.866C58.6895 248.984 56.2705 245.087 54.7922 241.055C51.0293 230.304 51.1637 217.806 52.9108 206.786C53.9859 199.797 57.0768 186.224 66.081 186.762C66.8873 186.224 68.5 186.762 69.1719 187.03ZM68.5 189.718C68.3656 189.584 68.2312 189.449 68.3656 189.718C68.5 189.718 68.5 189.718 68.5 189.718ZM70.5158 240.921C74.1444 231.379 74.8163 220.628 74.2788 210.549C74.01 205.711 73.4724 200.873 71.9941 196.169C71.4566 194.556 70.6502 192.944 69.7095 191.465C69.3063 190.793 69.1719 190.39 68.5 189.853C68.6344 189.987 68.6344 189.853 68.5 189.718C68.5 189.718 68.5 189.718 68.3656 189.718C68.3656 189.718 68.3656 189.853 68.5 189.853C68.3656 189.853 68.3656 189.718 68.2312 189.718H68.0968C67.9624 189.584 67.6937 189.449 67.4249 189.315C64.1995 189.718 61.9149 194.422 60.9742 196.975C58.9583 202.082 58.0176 207.726 57.6144 213.102C56.6737 222.912 56.8081 234.067 60.7054 243.205C61.3773 244.818 62.1837 246.431 63.3932 247.64C63.3932 247.775 63.662 247.909 63.7963 248.043C63.7963 248.043 63.7963 248.178 63.9307 248.178C64.0651 248.312 64.0651 248.312 64.0651 248.312C64.0651 248.312 64.1995 248.447 64.3339 248.447C63.7963 248.178 64.3339 248.447 64.4683 248.447C64.7371 248.312 65.1402 248.312 65.409 248.178C67.9624 247.237 69.5751 243.474 70.5158 240.921Z" fill="white"/>
<path d="M332.011 135.428C330.937 135.012 296.464 124.646 261.721 135.428" stroke="#D1AD54" stroke-width="8.11" stroke-miterlimit="10"/>
<path d="M333.14 136.076L329.29 114.411L343.894 112.763C343.894 112.763 362.551 112.763 365.8 84.805C369.048 56.8466 331.733 57.6703 331.733 57.6703C331.733 57.6703 334.981 27.5925 301.313 27.0095C267.654 26.4264 267.126 52.8949 267.126 52.8949C267.126 52.8949 228.719 46.9719 225.471 75.7539C223.018 97.5025 230.755 104.221 234.688 106.211C236.104 106.924 237.502 107.664 238.825 108.525C241.639 110.339 247.552 113.18 257.436 113.541C258.26 113.569 259.093 113.569 259.898 113.393C260.842 113.189 263.073 114.799 259.667 138.251C259.667 138.251 289.448 162.1 334.065 138.251L333.14 136.076Z" stroke="#D1AD54" stroke-width="5.29" stroke-miterlimit="10"/>
<path d="M298.102 71.4694C298.277 70.9974 299.573 67.6287 303.145 66.4256C305.441 65.6482 307.449 66.185 308.189 66.4256C308.245 66.4812 307.976 66.2128 307.976 66.2128L308.189 66.4256C309.725 67.129 312.557 68.7115 313.233 71.4694C313.511 72.6263 314.908 75.6526 309.457 82.2974C307.245 84.9998 302.683 87.8687 298.102 91.6447" fill="#D1AD54"/>
<path d="M298.12 71.4603C297.944 70.9883 296.649 67.6196 293.076 66.4165C290.781 65.6391 288.773 66.1759 288.033 66.4165C287.977 66.472 288.245 66.2036 288.245 66.2036L288.033 66.4165C286.496 67.1198 283.664 68.7024 282.989 71.4603C282.711 72.6171 281.406 75.4491 286.857 82.0939C289.069 84.7963 293.539 87.8503 298.12 91.6262" fill="#D1AD54"/>
<path d="M278 131V119" stroke="#D1AD54" stroke-width="5.74" stroke-miterlimit="10" stroke-linecap="round"/>
<path d="M291 131V118" stroke="#D1AD54" stroke-width="5.74" stroke-miterlimit="10" stroke-linecap="round"/>
<path d="M303 131V118" stroke="#D1AD54" stroke-width="5.74" stroke-miterlimit="10" stroke-linecap="round"/>
<path d="M314 131V119" stroke="#D1AD54" stroke-width="5.74" stroke-miterlimit="10" stroke-linecap="round"/>
</svg>
