<svg width="77" height="77" viewBox="0 0 77 77" fill="none" xmlns="http://www.w3.org/2000/svg">
<g clip-path="url(#clip0_78_27)">
<path d="M43.3125 0H52.8413C53.5343 3.44094 55.44 7.78181 58.7847 12.089C62.0572 16.3096 66.3981 19.25 72.1875 19.25V28.875C63.7512 28.875 57.4131 24.9576 52.9375 20.0729V52.9375C52.9375 57.6966 51.5263 62.3489 48.8822 66.3059C46.2382 70.263 42.4802 73.3471 38.0833 75.1684C33.6865 76.9896 28.8483 77.4661 24.1807 76.5377C19.513 75.6092 15.2255 73.3175 11.8603 69.9523C8.49505 66.5871 6.20332 62.2995 5.27487 57.6319C4.34641 52.9642 4.82293 48.126 6.64416 43.7292C8.46539 39.3323 11.5495 35.5743 15.5066 32.9303C19.4637 30.2862 24.1159 28.875 28.875 28.875V38.5C26.0195 38.5 23.2282 39.3467 20.854 40.9332C18.4797 42.5196 16.6292 44.7744 15.5365 47.4125C14.4438 50.0506 14.1578 52.9535 14.7149 55.7541C15.272 58.5547 16.647 61.1272 18.6662 63.1464C20.6853 65.1655 23.2578 66.5405 26.0584 67.0976C28.859 67.6547 31.7619 67.3688 34.4 66.276C37.0381 65.1833 39.2929 63.3328 40.8794 60.9586C42.4658 58.5843 43.3125 55.793 43.3125 52.9375V0Z" fill="white"/>
</g>
<defs>
<clipPath id="clip0_78_27">
<rect width="77" height="77" fill="white"/>
</clipPath>
</defs>
</svg>
