<svg width="77" height="77" viewBox="0 0 77 77" fill="none" xmlns="http://www.w3.org/2000/svg">
<g clip-path="url(#clip0_74_25)">
<path d="M65.4548 11.1941C61.9254 7.63047 57.7216 4.80529 53.0888 2.8834C48.4559 0.961524 43.4867 -0.0185802 38.4711 0.000266733C17.4549 0.000266733 0.32725 17.1231 0.308 38.1441C0.308 44.8768 2.06938 51.4266 5.39481 57.2257L0 77.0003L20.2317 71.6969C25.8262 74.7491 32.0982 76.3461 38.4711 76.341H38.4904C59.5114 76.341 76.6342 59.2181 76.6535 38.1778C76.6578 33.1635 75.6701 28.1978 73.7473 23.5668C71.8245 18.9358 69.0094 14.7308 65.4548 11.1941ZM38.4711 69.8826C32.7884 69.8781 27.211 68.3491 22.3204 65.4551L21.1654 64.7621L9.163 67.9095L12.3681 56.2006L11.6174 54.9927C8.4402 49.9411 6.75986 44.0925 6.77119 38.1249C6.77119 20.6748 21.0017 6.43939 38.4904 6.43939C42.6567 6.43192 46.7834 7.24921 50.6324 8.84416C54.4814 10.4391 57.9767 12.7801 60.9166 15.7323C63.8662 18.6735 66.2046 22.1693 67.797 26.0182C69.3895 29.8672 70.2045 33.9932 70.1951 38.1586C70.1759 55.6713 55.9453 69.8826 38.4711 69.8826ZM55.8683 46.1377C54.9202 45.6613 50.2377 43.3561 49.357 43.0288C48.4811 42.716 47.8411 42.5524 47.2154 43.5053C46.5754 44.4533 44.7466 46.6141 44.198 47.235C43.6494 47.875 43.0815 47.9472 42.1286 47.4756C41.1806 46.9943 38.1054 45.9933 34.4671 42.7353C31.6277 40.2087 29.7268 37.0806 29.1589 36.1325C28.6103 35.1796 29.106 34.6695 29.5824 34.1931C30.0011 33.7696 30.5305 33.0766 31.0069 32.528C31.4882 31.9793 31.647 31.5751 31.9598 30.9398C32.2726 30.295 32.1234 29.7463 31.8876 29.2699C31.647 28.7935 29.7461 24.0916 28.9424 22.1955C28.1724 20.3235 27.3879 20.5833 26.8008 20.5593C26.2522 20.5256 25.6121 20.5256 24.9721 20.5256C24.4888 20.5379 24.0132 20.6498 23.5751 20.8543C23.1371 21.0589 22.746 21.3516 22.4262 21.7143C21.5504 22.6671 19.1008 24.9723 19.1008 29.6741C19.1008 34.376 22.5177 38.8949 22.9989 39.535C23.4706 40.175 29.7076 49.7952 39.2796 53.934C41.5415 54.9205 43.3221 55.5028 44.7129 55.9456C46.9989 56.6771 49.0634 56.5664 50.7093 56.3306C52.5381 56.0515 56.3447 54.0206 57.1484 51.7924C57.9377 49.5594 57.9377 47.6536 57.6971 47.2542C57.4612 46.85 56.8212 46.6141 55.8683 46.1377Z" fill="white"/>
</g>
<defs>
<clipPath id="clip0_74_25">
<rect width="77" height="77" fill="white"/>
</clipPath>
</defs>
</svg>
